<?xml version="1.0" encoding="utf-8"?>
<!-- Generator: Adobe Illustrator 18.0.0, SVG Export Plug-In . SVG Version: 6.00 Build 0)  -->
<!DOCTYPE svg PUBLIC "-//W3C//DTD SVG 1.1//EN" "http://www.w3.org/Graphics/SVG/1.1/DTD/svg11.dtd">
<svg version="1.1" id="Layer_1" xmlns="http://www.w3.org/2000/svg" xmlns:xlink="http://www.w3.org/1999/xlink" x="0px" y="0px"
	 viewBox="0 0 567.4 193.6" enable-background="new 0 0 567.4 193.6" xml:space="preserve">
<g>
	<path d="M121.8,16l-17.2,86.5c-6.1,30.6-16,53-29.5,67.2c-13.5,14.2-27.9,21.3-43.2,21.3c-7.9,0-15.2-2.2-21.9-6.5
		c-6.7-4.3-10.1-9-10.1-14.1c0-6.2,4.4-11.9,13.2-17.1c0,7.5,2.3,13.4,7,17.9c4.7,4.4,11,6.6,18.9,6.6c11.7,0,20.5-4.4,26.4-13.3
		c6-8.9,11.4-25.6,16.3-50.1L100.7,19c-9.3,1.8-15.2,2.7-17.6,2.7c-8.3,0-13-5.2-14-15.7c2.9,1.6,6.3,2.4,10.4,2.4
		c5.1,0,13.6-1.2,25.5-3.7l9.5-2.1c8.4-1.8,15.7-2.6,21.9-2.6c7.2,0,12.2,1.4,15.2,4.3c3,2.9,5,8.2,6.2,16.1
		c-5.9-3.9-12.7-5.9-20.5-5.9C133,14.6,127.9,15,121.8,16z"/>
</g>
<g>
	<g>
		<line fill="none" stroke="#000000" stroke-miterlimit="10" x1="45.3" y1="46" x2="57.3" y2="51.5"/>
		<line fill="none" stroke="#000000" stroke-miterlimit="10" x1="45.3" y1="56" x2="57.3" y2="51.5"/>
		<line fill="none" stroke="#000000" stroke-miterlimit="10" x1="45.3" y1="46" x2="57.3" y2="61.8"/>
		<line fill="none" stroke="#000000" stroke-miterlimit="10" x1="45.3" y1="56" x2="57.3" y2="61.8"/>
		<line fill="none" stroke="#000000" stroke-miterlimit="10" x1="45.3" y1="67" x2="57.1" y2="61.5"/>
		<line fill="none" stroke="#000000" stroke-miterlimit="10" x1="45.3" y1="67" x2="57.3" y2="51.5"/>
		<line fill="none" stroke="#000000" stroke-miterlimit="10" x1="69.3" y1="46" x2="57.3" y2="51.5"/>
		<line fill="none" stroke="#000000" stroke-miterlimit="10" x1="69.3" y1="46" x2="57.3" y2="61.8"/>
		<line fill="none" stroke="#000000" stroke-miterlimit="10" x1="69.3" y1="56" x2="57.3" y2="51.5"/>
		<line fill="none" stroke="#000000" stroke-miterlimit="10" x1="69.3" y1="56" x2="57.3" y2="61.8"/>
		<line fill="none" stroke="#000000" stroke-miterlimit="10" x1="69.3" y1="67" x2="57.3" y2="61.8"/>
		<line fill="none" stroke="#000000" stroke-miterlimit="10" x1="69.3" y1="67" x2="57.3" y2="51.5"/>
	</g>
	<g>
		<circle fill="#00A99D" stroke="#000000" stroke-miterlimit="10" cx="69.3" cy="46" r="3.4"/>
		<circle fill="#00A99D" stroke="#000000" stroke-miterlimit="10" cx="69.3" cy="56" r="3.4"/>
		<circle fill="#00A99D" stroke="#000000" stroke-miterlimit="10" cx="69.3" cy="67" r="3.4"/>
	</g>
	<g>
		<circle fill="#00A99D" stroke="#000000" stroke-miterlimit="10" cx="57.3" cy="51.5" r="3.4"/>
		<circle fill="#00A99D" stroke="#000000" stroke-miterlimit="10" cx="57.3" cy="61.5" r="3.4"/>
	</g>
	<g>
		<circle fill="#00A99D" stroke="#000000" stroke-miterlimit="10" cx="45.3" cy="46" r="3.4"/>
		<circle fill="#00A99D" stroke="#000000" stroke-miterlimit="10" cx="45.3" cy="56" r="3.4"/>
		<circle fill="#00A99D" stroke="#000000" stroke-miterlimit="10" cx="45.3" cy="67" r="3.4"/>
	</g>
</g>
<g>
	<g>
		<line fill="none" stroke="#000000" stroke-miterlimit="10" x1="124.3" y1="118" x2="136.3" y2="123.5"/>
		<line fill="none" stroke="#000000" stroke-miterlimit="10" x1="124.3" y1="128" x2="136.3" y2="123.5"/>
		<line fill="none" stroke="#000000" stroke-miterlimit="10" x1="124.3" y1="118" x2="136.3" y2="133.8"/>
		<line fill="none" stroke="#000000" stroke-miterlimit="10" x1="124.3" y1="128" x2="136.3" y2="133.8"/>
		<line fill="none" stroke="#000000" stroke-miterlimit="10" x1="124.3" y1="139" x2="136.1" y2="133.5"/>
		<line fill="none" stroke="#000000" stroke-miterlimit="10" x1="124.3" y1="139" x2="136.3" y2="123.5"/>
		<line fill="none" stroke="#000000" stroke-miterlimit="10" x1="148.3" y1="118" x2="136.3" y2="123.5"/>
		<line fill="none" stroke="#000000" stroke-miterlimit="10" x1="148.3" y1="118" x2="136.3" y2="133.8"/>
		<line fill="none" stroke="#000000" stroke-miterlimit="10" x1="148.3" y1="128" x2="136.3" y2="123.5"/>
		<line fill="none" stroke="#000000" stroke-miterlimit="10" x1="148.3" y1="128" x2="136.3" y2="133.8"/>
		<line fill="none" stroke="#000000" stroke-miterlimit="10" x1="148.3" y1="139" x2="136.3" y2="133.8"/>
		<line fill="none" stroke="#000000" stroke-miterlimit="10" x1="148.3" y1="139" x2="136.3" y2="123.5"/>
	</g>
	<g>
		<circle fill="#00A99D" stroke="#000000" stroke-miterlimit="10" cx="148.3" cy="118" r="3.4"/>
		<circle fill="#00A99D" stroke="#000000" stroke-miterlimit="10" cx="148.3" cy="128" r="3.4"/>
		<circle fill="#00A99D" stroke="#000000" stroke-miterlimit="10" cx="148.3" cy="139" r="3.4"/>
	</g>
	<g>
		<circle fill="#00A99D" stroke="#000000" stroke-miterlimit="10" cx="136.3" cy="123.5" r="3.4"/>
		<circle fill="#00A99D" stroke="#000000" stroke-miterlimit="10" cx="136.3" cy="133.5" r="3.4"/>
	</g>
	<g>
		<circle fill="#00A99D" stroke="#000000" stroke-miterlimit="10" cx="124.3" cy="118" r="3.4"/>
		<circle fill="#00A99D" stroke="#000000" stroke-miterlimit="10" cx="124.3" cy="128" r="3.4"/>
		<circle fill="#00A99D" stroke="#000000" stroke-miterlimit="10" cx="124.3" cy="139" r="3.4"/>
	</g>
</g>
<g>
	<g>
		<line fill="none" stroke="#000000" stroke-miterlimit="10" x1="27.3" y1="134" x2="39.3" y2="139.5"/>
		<line fill="none" stroke="#000000" stroke-miterlimit="10" x1="27.3" y1="144" x2="39.3" y2="139.5"/>
		<line fill="none" stroke="#000000" stroke-miterlimit="10" x1="27.3" y1="134" x2="39.3" y2="149.8"/>
		<line fill="none" stroke="#000000" stroke-miterlimit="10" x1="27.3" y1="144" x2="39.3" y2="149.8"/>
		<line fill="none" stroke="#000000" stroke-miterlimit="10" x1="27.3" y1="155" x2="39.1" y2="149.5"/>
		<line fill="none" stroke="#000000" stroke-miterlimit="10" x1="27.3" y1="155" x2="39.3" y2="139.5"/>
		<line fill="none" stroke="#000000" stroke-miterlimit="10" x1="51.3" y1="134" x2="39.3" y2="139.5"/>
		<line fill="none" stroke="#000000" stroke-miterlimit="10" x1="51.3" y1="134" x2="39.3" y2="149.8"/>
		<line fill="none" stroke="#000000" stroke-miterlimit="10" x1="51.3" y1="144" x2="39.3" y2="139.5"/>
		<line fill="none" stroke="#000000" stroke-miterlimit="10" x1="51.3" y1="144" x2="39.3" y2="149.8"/>
		<line fill="none" stroke="#000000" stroke-miterlimit="10" x1="51.3" y1="155" x2="39.3" y2="149.8"/>
		<line fill="none" stroke="#000000" stroke-miterlimit="10" x1="51.3" y1="155" x2="39.3" y2="139.5"/>
	</g>
	<g>
		<circle fill="#00A99D" stroke="#000000" stroke-miterlimit="10" cx="51.3" cy="134" r="3.4"/>
		<circle fill="#00A99D" stroke="#000000" stroke-miterlimit="10" cx="51.3" cy="144" r="3.4"/>
		<circle fill="#00A99D" stroke="#000000" stroke-miterlimit="10" cx="51.3" cy="155" r="3.4"/>
	</g>
	<g>
		<circle fill="#00A99D" stroke="#000000" stroke-miterlimit="10" cx="39.3" cy="139.5" r="3.4"/>
		<circle fill="#00A99D" stroke="#000000" stroke-miterlimit="10" cx="39.3" cy="149.5" r="3.4"/>
	</g>
	<g>
		<circle fill="#00A99D" stroke="#000000" stroke-miterlimit="10" cx="27.3" cy="134" r="3.4"/>
		<circle fill="#00A99D" stroke="#000000" stroke-miterlimit="10" cx="27.3" cy="144" r="3.4"/>
		<circle fill="#00A99D" stroke="#000000" stroke-miterlimit="10" cx="27.3" cy="155" r="3.4"/>
	</g>
</g>
<rect x="79.4" y="33" fill="#FFFFFF" stroke="#000000" stroke-miterlimit="10" width="23" height="23"/>
<rect x="90.9" y="109.6" fill="#FFFFFF" stroke="#000000" stroke-miterlimit="10" width="23" height="23"/>
<rect x="45.6" y="167.5" fill="#FFFFFF" stroke="#000000" stroke-miterlimit="10" width="23" height="23"/>
<g>
	<path d="M179.5,190.5v-3.7h5.1c2.2,0,4.2-0.2,6-0.6c1.8-0.4,3.2-1.3,4.4-2.6c1.2-1.4,2.1-3.4,2.7-6c0.6-2.6,1-6.2,1-10.7V81
		c0-8.2-0.9-13.4-2.8-15.5c-2.5-2.9-6.3-4.4-11.3-4.4h-5.1v-3.7h54.2c19.7,0,34.9,2.3,45.4,6.9c10.4,4.6,18.8,12.1,25,22.6
		c6.3,10.6,9.5,22.8,9.5,36.5c0,9.9-1.6,18.9-4.8,27.1c-3.2,8.2-7.9,15.3-14.2,21.2c-6.3,6-14.1,10.6-23.4,13.9
		c-9.3,3.3-20.1,5-32.4,5H179.5z M217.6,180.9c8.1,1.9,15,2.8,20.8,2.8c7.5,0,14.5-1.4,20.9-4.2s12-6.7,16.8-11.9
		c4.7-5.1,8.4-11.4,11.1-18.7c2.7-7.3,4-15.5,4-24.6c0-9.2-1.3-17.5-4-24.8c-2.6-7.4-6.3-13.6-11.1-18.8c-4.8-5.1-10.5-9.1-17-11.8
		c-6.5-2.7-13.7-4.1-21.5-4.1c-5.8,0-12.5,1-20.1,2.9V180.9z"/>
	<path d="M413.3,146h-51.6l-9.1,20.9c-2.1,5.2-3.2,9-3.2,11.6c0,1.1,0.2,2.1,0.5,2.9c0.3,0.9,1.1,1.7,2.2,2.4
		c1.1,0.7,2.7,1.4,4.7,1.9c2,0.5,4.7,0.9,8,1.1v3.7h-41.9v-3.7c3.3-0.5,6-1.2,8.1-2.2c2.1-1,3.8-2.3,5.3-4c1.5-1.7,2.8-3.9,4-6.7
		c1.2-2.7,2.7-6.1,4.5-10.1l46.9-109.4h3.4L441.3,165c1.9,4.6,3.6,8.3,5.2,11.1s3.3,5,5,6.5c1.7,1.6,3.6,2.6,5.6,3.2
		c2,0.6,4.4,0.9,7.3,1v3.7h-52.6v-3.7c5.3-0.2,8.9-1,10.8-2.6c1.9-1.5,2.9-3.3,2.9-5.5c-0.1-2.8-1.4-7.4-4-13.8L413.3,146z
		 M410.5,138.7L388,84.9l-23.1,53.8H410.5z"/>
	<path d="M558.6,54.4v46H555c-1.7-12.4-5.7-21.9-12.2-28.4c-6.4-6.5-14.6-9.8-24.6-9.8c-3.4,0-6.5,0.6-9.4,1.8
		c-2.8,1.2-5.3,2.7-7.5,4.6c-2.1,1.9-3.8,4.1-5,6.5c-1.2,2.4-1.8,5-1.8,7.6c0,2.4,0.5,4.8,1.5,7c1,2.2,4,5.6,9.1,10.3
		c8.5,5.4,16.1,9.8,22.7,13.3c6.2,3.4,14.7,8.6,25.3,15.5c4.6,3.5,8.1,7.7,10.5,12.5c2.4,4.8,3.7,9.9,3.7,15.2c0,5-1,9.7-3.1,14.2
		c-2.1,4.5-4.9,8.4-8.6,11.8s-8.1,6.1-13.3,8.1c-5.2,2-10.8,3-17,3c-3.9,0-7.5-0.3-10.8-0.9c-0.6-0.1-2.1-0.5-4.6-1.2
		s-5.2-1.5-8-2.3c-2.8-0.8-5.5-1.5-7.9-2.2c-2.4-0.7-3.9-1-4.2-1c-1.7,0-3,0.5-3.9,1.5c-0.9,1-1.6,3-2.1,6.2h-3.7v-45.7h3.7
		c1.8,9.4,4.1,16.6,6.9,21.5c1.4,2.3,3.2,4.5,5.5,6.5c2.3,2,4.9,3.8,7.8,5.3c2.9,1.5,6,2.7,9.3,3.5c3.3,0.8,6.7,1.2,10.1,1.2
		c4.1,0,7.8-0.6,11.1-1.8c3.3-1.2,6.1-2.8,8.3-4.8c2.3-2,4.1-4.3,5.3-7c1.2-2.6,1.8-5.4,1.8-8.3c0-3.3-0.9-6.6-2.7-10
		c-1.8-3.3-4.9-6.6-9.2-9.8c-4.2-2.5-9.2-5.5-14.9-8.9c-11-6.3-20.9-12.5-29.4-18.3c-4.8-3.8-8.4-8-10.9-12.5s-3.7-9.6-3.7-15.2
		c0-4.7,1-9.2,2.9-13.4c2-4.2,4.7-8,8.1-11.2c3.5-3.2,7.6-5.8,12.4-7.6c4.8-1.9,10-2.8,15.5-2.8c7,0,14.5,1.7,22.4,5.1
		c1.9,0.8,3.4,1.4,4.7,1.9c1.3,0.5,2.3,0.7,3.1,0.6c1.8,0,3.2-0.5,4.2-1.5c1.1-1,1.9-3,2.5-6.2H558.6z"/>
</g>
</svg>
