<?xml version="1.0" encoding="utf-8"?>
<!-- Generator: Adobe Illustrator 18.0.0, SVG Export Plug-In . SVG Version: 6.00 Build 0)  -->
<!DOCTYPE svg PUBLIC "-//W3C//DTD SVG 1.1//EN" "http://www.w3.org/Graphics/SVG/1.1/DTD/svg11.dtd">
<svg version="1.1" id="Layer_1" xmlns="http://www.w3.org/2000/svg" xmlns:xlink="http://www.w3.org/1999/xlink" x="0px" y="0px"
	 viewBox="0 0 157.7 191" enable-background="new 0 0 157.7 191" xml:space="preserve">
<g>
	<path d="M121.8,16l-17.2,86.5c-6.1,30.6-16,53-29.5,67.2c-13.5,14.2-27.9,21.3-43.2,21.3c-7.9,0-15.2-2.2-21.9-6.5
		c-6.7-4.3-10.1-9-10.1-14.1c0-6.2,4.4-11.9,13.2-17.1c0,7.5,2.3,13.4,7,17.9c4.7,4.4,11,6.6,18.9,6.6c11.7,0,20.5-4.4,26.4-13.3
		c6-8.9,11.4-25.6,16.3-50.1L100.7,19c-9.3,1.8-15.2,2.7-17.6,2.7c-8.3,0-13-5.2-14-15.7c2.9,1.6,6.3,2.4,10.4,2.4
		c5.1,0,13.6-1.2,25.5-3.7l9.5-2.1c8.4-1.8,15.7-2.6,21.9-2.6c7.2,0,12.2,1.4,15.2,4.3c3,2.9,5,8.2,6.2,16.1
		c-5.9-3.9-12.7-5.9-20.5-5.9C133,14.6,127.9,15,121.8,16z"/>
</g>
<g>
	<g>
		<line fill="none" stroke="#000000" stroke-miterlimit="10" x1="45.3" y1="46" x2="57.3" y2="51.5"/>
		<line fill="none" stroke="#000000" stroke-miterlimit="10" x1="45.3" y1="56" x2="57.3" y2="51.5"/>
		<line fill="none" stroke="#000000" stroke-miterlimit="10" x1="45.3" y1="46" x2="57.3" y2="61.8"/>
		<line fill="none" stroke="#000000" stroke-miterlimit="10" x1="45.3" y1="56" x2="57.3" y2="61.8"/>
		<line fill="none" stroke="#000000" stroke-miterlimit="10" x1="45.3" y1="67" x2="57.1" y2="61.5"/>
		<line fill="none" stroke="#000000" stroke-miterlimit="10" x1="45.3" y1="67" x2="57.3" y2="51.5"/>
		<line fill="none" stroke="#000000" stroke-miterlimit="10" x1="69.3" y1="46" x2="57.3" y2="51.5"/>
		<line fill="none" stroke="#000000" stroke-miterlimit="10" x1="69.3" y1="46" x2="57.3" y2="61.8"/>
		<line fill="none" stroke="#000000" stroke-miterlimit="10" x1="69.3" y1="56" x2="57.3" y2="51.5"/>
		<line fill="none" stroke="#000000" stroke-miterlimit="10" x1="69.3" y1="56" x2="57.3" y2="61.8"/>
		<line fill="none" stroke="#000000" stroke-miterlimit="10" x1="69.3" y1="67" x2="57.3" y2="61.8"/>
		<line fill="none" stroke="#000000" stroke-miterlimit="10" x1="69.3" y1="67" x2="57.3" y2="51.5"/>
	</g>
	<g>
		<circle fill="#00A99D" stroke="#000000" stroke-miterlimit="10" cx="69.3" cy="46" r="3.4"/>
		<circle fill="#00A99D" stroke="#000000" stroke-miterlimit="10" cx="69.3" cy="56" r="3.4"/>
		<circle fill="#00A99D" stroke="#000000" stroke-miterlimit="10" cx="69.3" cy="67" r="3.4"/>
	</g>
	<g>
		<circle fill="#00A99D" stroke="#000000" stroke-miterlimit="10" cx="57.3" cy="51.5" r="3.4"/>
		<circle fill="#00A99D" stroke="#000000" stroke-miterlimit="10" cx="57.3" cy="61.5" r="3.4"/>
	</g>
	<g>
		<circle fill="#00A99D" stroke="#000000" stroke-miterlimit="10" cx="45.3" cy="46" r="3.4"/>
		<circle fill="#00A99D" stroke="#000000" stroke-miterlimit="10" cx="45.3" cy="56" r="3.4"/>
		<circle fill="#00A99D" stroke="#000000" stroke-miterlimit="10" cx="45.3" cy="67" r="3.4"/>
	</g>
</g>
<g>
	<g>
		<line fill="none" stroke="#000000" stroke-miterlimit="10" x1="124.3" y1="118" x2="136.3" y2="123.5"/>
		<line fill="none" stroke="#000000" stroke-miterlimit="10" x1="124.3" y1="128" x2="136.3" y2="123.5"/>
		<line fill="none" stroke="#000000" stroke-miterlimit="10" x1="124.3" y1="118" x2="136.3" y2="133.8"/>
		<line fill="none" stroke="#000000" stroke-miterlimit="10" x1="124.3" y1="128" x2="136.3" y2="133.8"/>
		<line fill="none" stroke="#000000" stroke-miterlimit="10" x1="124.3" y1="139" x2="136.1" y2="133.5"/>
		<line fill="none" stroke="#000000" stroke-miterlimit="10" x1="124.3" y1="139" x2="136.3" y2="123.5"/>
		<line fill="none" stroke="#000000" stroke-miterlimit="10" x1="148.3" y1="118" x2="136.3" y2="123.5"/>
		<line fill="none" stroke="#000000" stroke-miterlimit="10" x1="148.3" y1="118" x2="136.3" y2="133.8"/>
		<line fill="none" stroke="#000000" stroke-miterlimit="10" x1="148.3" y1="128" x2="136.3" y2="123.5"/>
		<line fill="none" stroke="#000000" stroke-miterlimit="10" x1="148.3" y1="128" x2="136.3" y2="133.8"/>
		<line fill="none" stroke="#000000" stroke-miterlimit="10" x1="148.3" y1="139" x2="136.3" y2="133.8"/>
		<line fill="none" stroke="#000000" stroke-miterlimit="10" x1="148.3" y1="139" x2="136.3" y2="123.5"/>
	</g>
	<g>
		<circle fill="#00A99D" stroke="#000000" stroke-miterlimit="10" cx="148.3" cy="118" r="3.4"/>
		<circle fill="#00A99D" stroke="#000000" stroke-miterlimit="10" cx="148.3" cy="128" r="3.4"/>
		<circle fill="#00A99D" stroke="#000000" stroke-miterlimit="10" cx="148.3" cy="139" r="3.4"/>
	</g>
	<g>
		<circle fill="#00A99D" stroke="#000000" stroke-miterlimit="10" cx="136.3" cy="123.5" r="3.4"/>
		<circle fill="#00A99D" stroke="#000000" stroke-miterlimit="10" cx="136.3" cy="133.5" r="3.4"/>
	</g>
	<g>
		<circle fill="#00A99D" stroke="#000000" stroke-miterlimit="10" cx="124.3" cy="118" r="3.4"/>
		<circle fill="#00A99D" stroke="#000000" stroke-miterlimit="10" cx="124.3" cy="128" r="3.4"/>
		<circle fill="#00A99D" stroke="#000000" stroke-miterlimit="10" cx="124.3" cy="139" r="3.4"/>
	</g>
</g>
<g>
	<g>
		<line fill="none" stroke="#000000" stroke-miterlimit="10" x1="27.3" y1="134" x2="39.3" y2="139.5"/>
		<line fill="none" stroke="#000000" stroke-miterlimit="10" x1="27.3" y1="144" x2="39.3" y2="139.5"/>
		<line fill="none" stroke="#000000" stroke-miterlimit="10" x1="27.3" y1="134" x2="39.3" y2="149.8"/>
		<line fill="none" stroke="#000000" stroke-miterlimit="10" x1="27.3" y1="144" x2="39.3" y2="149.8"/>
		<line fill="none" stroke="#000000" stroke-miterlimit="10" x1="27.3" y1="155" x2="39.1" y2="149.5"/>
		<line fill="none" stroke="#000000" stroke-miterlimit="10" x1="27.3" y1="155" x2="39.3" y2="139.5"/>
		<line fill="none" stroke="#000000" stroke-miterlimit="10" x1="51.3" y1="134" x2="39.3" y2="139.5"/>
		<line fill="none" stroke="#000000" stroke-miterlimit="10" x1="51.3" y1="134" x2="39.3" y2="149.8"/>
		<line fill="none" stroke="#000000" stroke-miterlimit="10" x1="51.3" y1="144" x2="39.3" y2="139.5"/>
		<line fill="none" stroke="#000000" stroke-miterlimit="10" x1="51.3" y1="144" x2="39.3" y2="149.8"/>
		<line fill="none" stroke="#000000" stroke-miterlimit="10" x1="51.3" y1="155" x2="39.3" y2="149.8"/>
		<line fill="none" stroke="#000000" stroke-miterlimit="10" x1="51.3" y1="155" x2="39.3" y2="139.5"/>
	</g>
	<g>
		<circle fill="#00A99D" stroke="#000000" stroke-miterlimit="10" cx="51.3" cy="134" r="3.4"/>
		<circle fill="#00A99D" stroke="#000000" stroke-miterlimit="10" cx="51.3" cy="144" r="3.4"/>
		<circle fill="#00A99D" stroke="#000000" stroke-miterlimit="10" cx="51.3" cy="155" r="3.4"/>
	</g>
	<g>
		<circle fill="#00A99D" stroke="#000000" stroke-miterlimit="10" cx="39.3" cy="139.5" r="3.4"/>
		<circle fill="#00A99D" stroke="#000000" stroke-miterlimit="10" cx="39.3" cy="149.5" r="3.4"/>
	</g>
	<g>
		<circle fill="#00A99D" stroke="#000000" stroke-miterlimit="10" cx="27.3" cy="134" r="3.4"/>
		<circle fill="#00A99D" stroke="#000000" stroke-miterlimit="10" cx="27.3" cy="144" r="3.4"/>
		<circle fill="#00A99D" stroke="#000000" stroke-miterlimit="10" cx="27.3" cy="155" r="3.4"/>
	</g>
</g>
<rect x="79.4" y="33" fill="#FFFFFF" stroke="#000000" stroke-miterlimit="10" width="23" height="23"/>
<rect x="90.9" y="109.6" fill="#FFFFFF" stroke="#000000" stroke-miterlimit="10" width="23" height="23"/>
<rect x="45.6" y="167.5" fill="#FFFFFF" stroke="#000000" stroke-miterlimit="10" width="23" height="23"/>
</svg>
